<svg xmlns="http://www.w3.org/2000/svg" xmlns:xlink="http://www.w3.org/1999/xlink" version="1.1" id="Layer_1" x="0px" y="0px" width="500px" height="500px" viewBox="0 0 500 500" enable-background="new 0 0 500 500" xml:space="preserve">
  <path fill="#64686C" d="M250 0c138.071 0 250 111.929 250 250S388.071 500 250 500 0 388.071 0 250 111.929 0 250 0z"/>
  <path fill="#FFFFFF" d="M112.11 222.222H387.89c0.552 0 1 0.448 1 1v53.557c0 0.552-0.448 1-1 1H112.11c-0.552 0-1-0.448-1-1v-53.557C111.11 222.669 111.557 222.222 112.11 222.222z"/>
  <path fill="#FFFFFF" d="M223.223 111.114h53.555c0.552 0 1 0.448 1 1v275.772c0 0.552-0.448 1-1 1h-53.555c-0.552 0-1-0.448-1-1V112.114C222.223 111.562 222.67 111.114 223.223 111.114z"/>
</svg>